# xmcd
#
# Track frame offsets:
#	150
#	18288
#	34554
#	48738
#	63613
#	75945
#	91517
#	107604
#	123337
#	140536
#	161005
#	175338
#	190155
#	204812
#	218583
#	236923
#	251998
#	263922
#	280679
#	299943
#
# Disc length: 4198
#
# Revision: 1
# Processed by: cddbd v1.5.1PL0 Copyright (c) Steve Scherf et al.
# Submitted via: dBpowerAMP V4.0
# Normalized: r0:TRMNUM
#
DISCID=1f106414
DTITLE=LOS ROMEROS DE LA PUEBLA - ANTOLOGIA CD 3
DYEAR=2001
DGENRE=SEVILLANA
TTITLE0=carta a manuela
TTITLE1=almonteño José
TTITLE2=más de cuatro veces
TTITLE3=en sevilla a cualquier hora
TTITLE4=los pinos
TTITLE5=dale a la vara
TTITLE6=cuatro puente dos orillas
TTITLE7=no te olvidaré
TTITLE8=día de tentaero
TTITLE9=gorrión
TTITLE10=vamos a beber
TTITLE11=sevillanas del aljarefe
TTITLE12=la apuesta
TTITLE13=el halcón y la paloma
TTITLE14=las cosas del ganado
TTITLE15=ese tío no es rociero
TTITLE16=corralers de pueblo
TTITLE17=el sol de la mañana
TTITLE18=salenera
TTITLE19=blanca y verde
EXTD=realizado by_picha_nauta
EXTT0=
EXTT1=
EXTT2=
EXTT3=
EXTT4=
EXTT5=
EXTT6=
EXTT7=
EXTT8=
EXTT9=
EXTT10=
EXTT11=
EXTT12=
EXTT13=
EXTT14=
EXTT15=
EXTT16=
EXTT17=
EXTT18=
EXTT19=
PLAYORDER=
